# xmcd
#
# Track frame offsets:
#	150
#	16393
#	29007
#	47666
#	66350
#	81325
#	94229
#	107888
#	124750
#	142849
#	156737
#	177973
#	194412
#	209273
#	228890
#	244418
#	262075
#	282618
#
# Disc length: 3974 seconds
# Revision: 1
# Processed by: cddbd v1.5.2PL0 Copyright (c) Steve Scherf et al.
# Submitted via: dBpowerAMP V12.0
#
DISCID=160f8412
DTITLE=Graham Rodger - They Answered The Call
DYEAR=2015
DGENRE=Country
TTITLE0=Australia's Colonial Son's
TTITLE1=The Naked Army
TTITLE2=Australia Will Be There
TTITLE3=Fallen Comrades
TTITLE4=Beersheba
TTITLE5=Such A Shame
TTITLE6=Anzac On The Wall
TTITLE7=The Three Letters
TTITLE8=I must Go Back
TTITLE9=Angels Without Halo's
TTITLE10=The Battle of Long Tan
TTITLE11=Missing in Action
TTITLE12=Who Ever Gets my Dog
TTITLE13=The Battle of Coral
TTITLE14=Fifty Thousand Australian Son's
TTITLE15=A Small Pain in The Chest
TTITLE16=Give This Hug to Daddy
TTITLE17=We've Done us Proud
EXTD=
EXTT0=
EXTT1=
EXTT2=
EXTT3=
EXTT4=
EXTT5=
EXTT6=
EXTT7=
EXTT8=
EXTT9=
EXTT10=
EXTT11=
EXTT12=
EXTT13=
EXTT14=
EXTT15=
EXTT16=
EXTT17=
PLAYORDER=
